<svg xmlns="http://www.w3.org/2000/svg" viewBox="0 0 24 24" fill="none" stroke="currentColor" stroke-width="1.5" stroke-linecap="round" stroke-linejoin="round">
  <!-- White circular background -->
  <circle cx="12" cy="12" r="12" fill="white" stroke="none"/>
  <!-- Liquid (negroni red) - drawn first, no stroke -->
  <rect x="8.1" y="9.5" width="7.8" height="8.4" fill="#C84040" stroke="none"/>
  <!-- Ice cubes (translucent, rounded, tilted with pale blue tint) -->
  <rect x="9.2" y="9" width="2.3" height="2.3" rx="0.4" ry="0.4" fill="#E8F0F8" fill-opacity="0.5" stroke="#D0DDE8" stroke-width="0.5" stroke-opacity="0.5" transform="rotate(15 10.35 10.15)"/>
  <rect x="12.8" y="8.5" width="2.3" height="2.3" rx="0.4" ry="0.4" fill="#E8F0F8" fill-opacity="0.5" stroke="#D0DDE8" stroke-width="0.5" stroke-opacity="0.5" transform="rotate(-20 13.95 9.65)"/>
  <rect x="11.2" y="11.5" width="2.3" height="2.3" rx="0.4" ry="0.4" fill="#E8F0F8" fill-opacity="0.5" stroke="#D0DDE8" stroke-width="0.5" stroke-opacity="0.5" transform="rotate(25 12.35 12.65)"/>
  <rect x="12.8" y="11" width="2.3" height="2.3" rx="0.4" ry="0.4" fill="#E8F0F8" fill-opacity="0.5" stroke="#D0DDE8" stroke-width="0.5" stroke-opacity="0.5" transform="rotate(-15 13.95 12.15)"/>
  <rect x="9.2" y="12" width="2.3" height="2.3" rx="0.4" ry="0.4" fill="#E8F0F8" fill-opacity="0.5" stroke="#D0DDE8" stroke-width="0.5" stroke-opacity="0.5" transform="rotate(30 10.35 13.15)"/>
  <!-- Rocks glass outline -->
  <path d="M8 8 L8 18 L16 18 L16 8" fill="none" stroke="#1F2937" stroke-width="1.2"/>

</svg>
