<svg xmlns="http://www.w3.org/2000/svg" viewBox="0 0 24 24" fill="none" stroke="currentColor" stroke-width="1.5" stroke-linecap="round" stroke-linejoin="round">
  <g transform="translate(12 11) scale(1.3) translate(-12 -12)">
    <!-- White circular background -->
    <circle cx="12" cy="13" r="9" fill="white" stroke="none"/>
    <!-- Ice cubes (translucent, rounded, tilted with blue tint) -->
    <rect x="9.2" y="9" width="2.3" height="2.3" rx="0.4" ry="0.4" fill="#B3D9F2" fill-opacity="0.85" stroke="#7ABADB" stroke-width="0.5" stroke-opacity="0.9" transform="rotate(15 10.35 10.15)"/>
    <rect x="12.8" y="8.5" width="2.3" height="2.3" rx="0.4" ry="0.4" fill="#B3D9F2" fill-opacity="0.85" stroke="#7ABADB" stroke-width="0.5" stroke-opacity="0.9" transform="rotate(-20 13.95 9.65)"/>
    <rect x="11.2" y="11.5" width="2.3" height="2.3" rx="0.4" ry="0.4" fill="#B3D9F2" fill-opacity="0.85" stroke="#7ABADB" stroke-width="0.5" stroke-opacity="0.9" transform="rotate(25 12.35 12.65)"/>
    <rect x="12.8" y="11" width="2.3" height="2.3" rx="0.4" ry="0.4" fill="#B3D9F2" fill-opacity="0.85" stroke="#7ABADB" stroke-width="0.5" stroke-opacity="0.9" transform="rotate(-15 13.95 12.15)"/>
    <rect x="9.2" y="12" width="2.3" height="2.3" rx="0.4" ry="0.4" fill="#B3D9F2" fill-opacity="0.85" stroke="#7ABADB" stroke-width="0.5" stroke-opacity="0.9" transform="rotate(30 10.35 13.15)"/>
    <!-- Orange slice garnish (after ice, before liquid) -->
    <!-- Orange rim (peel) - outer ring -->
    <path d="M 12.2 13.6 A 3.6 3.6 0 0 1 12.2 6.4 L 12.2 7.0 A 3.0 3.0 0 0 0 12.2 13.0 Z" fill="#FF6B1A" stroke="none" transform="rotate(-25 12.2 10)"/>
    <!-- Orange center (pulp) -->
    <path d="M 12.2 13.0 A 3.0 3.0 0 0 1 12.2 7.0" fill="#FF8C42" stroke="none" transform="rotate(-25 12.2 10)"/>
    <!-- Liquid (negroni red) - translucent -->
    <rect x="8.1" y="9.5" width="7.8" height="8.4" fill="#C84040" fill-opacity="0.85" stroke="none"/>
    <!-- Rocks glass outline -->
    <path d="M8 8 L8 18 L16 18 L16 8" fill="none" stroke="#1F2937" stroke-width="1.2"/>
  </g>

</svg>
